<?xml version="1.0" encoding="UTF-8" standalone="no"?>
<svg
   xmlns:dc="http://purl.org/dc/elements/1.1/"
   xmlns:cc="http://creativecommons.org/ns#"
   xmlns:rdf="http://www.w3.org/1999/02/22-rdf-syntax-ns#"
   xmlns:svg="http://www.w3.org/2000/svg"
   xmlns="http://www.w3.org/2000/svg"
   xmlns:xlink="http://www.w3.org/1999/xlink"
   xmlns:sodipodi="http://sodipodi.sourceforge.net/DTD/sodipodi-0.dtd"
   xmlns:inkscape="http://www.inkscape.org/namespaces/inkscape"
   height="1052.36"
   version="1.2"
   width="1052.36"
   id="svg2"
   inkscape:version="0.48.4 r9939"
   sodipodi:docname="Universe2.svg">
  <metadata
     id="metadata170">
    <rdf:RDF>
      <cc:Work
         rdf:about="">
        <dc:format>image/svg+xml</dc:format>
        <dc:type
           rdf:resource="http://purl.org/dc/dcmitype/StillImage" />
        <dc:title />
      </cc:Work>
    </rdf:RDF>
  </metadata>
  <sodipodi:namedview
     pagecolor="#ffffff"
     bordercolor="#666666"
     borderopacity="1"
     objecttolerance="10"
     gridtolerance="10"
     guidetolerance="10"
     inkscape:pageopacity="0"
     inkscape:pageshadow="2"
     inkscape:window-width="1920"
     inkscape:window-height="1033"
     id="namedview168"
     showgrid="false"
     inkscape:zoom="0.77065187"
     inkscape:cx="527.47554"
     inkscape:cy="524.88666"
     inkscape:window-x="-4"
     inkscape:window-y="-4"
     inkscape:window-maximized="1"
     inkscape:current-layer="svg2" />
  <defs
     id="defs4">
    <linearGradient
       id="linearGradient3968">
      <stop
         style="stop-color:#000000;stop-opacity:0;"
         offset="0"
         id="stop3970" />
      <stop
         id="stop3978"
         offset="0.60336012"
         style="stop-color:#00517a;stop-opacity:0.08695652;" />
      <stop
         id="stop3976"
         offset="0.73736006"
         style="stop-color:#00a2f5;stop-opacity:0.18260869;" />
      <stop
         style="stop-color:#00a2f5;stop-opacity:0.13913043;"
         offset="1"
         id="stop3972" />
    </linearGradient>
    <linearGradient
       inkscape:collect="always"
       id="linearGradient3960">
      <stop
         style="stop-color:#00a2f5;stop-opacity:1;"
         offset="0"
         id="stop3962" />
      <stop
         style="stop-color:#00a2f5;stop-opacity:0;"
         offset="1"
         id="stop3964" />
    </linearGradient>
    <linearGradient
       inkscape:collect="always"
       id="linearGradient3952">
      <stop
         style="stop-color:#00a2f5;stop-opacity:1;"
         offset="0"
         id="stop3954" />
      <stop
         style="stop-color:#00a2f5;stop-opacity:0;"
         offset="1"
         id="stop3956" />
    </linearGradient>
    <linearGradient
       inkscape:collect="always"
       id="linearGradient3944">
      <stop
         style="stop-color:#00a2f5;stop-opacity:1;"
         offset="0"
         id="stop3946" />
      <stop
         style="stop-color:#00a2f5;stop-opacity:0;"
         offset="1"
         id="stop3948" />
    </linearGradient>
    <linearGradient
       id="linearGradient3924">
      <stop
         style="stop-color:#000000;stop-opacity:0;"
         offset="0"
         id="stop3926" />
      <stop
         style="stop-color:#00a2f5;stop-opacity:0;"
         offset="0.67081022"
         id="stop3942" />
      <stop
         id="stop3934"
         offset="0.95461452"
         style="stop-color:#00a2f5;stop-opacity:0.27826086;" />
      <stop
         style="stop-color:#00a2f5;stop-opacity:0.18431373;"
         offset="0.97730726"
         id="stop3842" />
      <stop
         style="stop-color:#00a2f5;stop-opacity:0;"
         offset="1"
         id="stop3928" />
    </linearGradient>
    <radialGradient
       inkscape:collect="always"
       xlink:href="#linearGradient3924"
       id="radialGradient3930"
       cx="595.5"
       cy="419.5"
       fx="595.5"
       fy="419.5"
       r="318.5"
       gradientUnits="userSpaceOnUse" />
    <radialGradient
       inkscape:collect="always"
       xlink:href="#linearGradient3944"
       id="radialGradient3950"
       cx="552"
       cy="53.5"
       fx="552"
       fy="53.5"
       r="49.5"
       gradientTransform="matrix(1,0,0,0.14141414,0,45.934343)"
       gradientUnits="userSpaceOnUse" />
    <radialGradient
       inkscape:collect="always"
       xlink:href="#linearGradient3952"
       id="radialGradient3958"
       cx="922.5"
       cy="471"
       fx="922.5"
       fy="471"
       r="4.5"
       gradientTransform="matrix(1,0,0,6.2222222,0,-2459.6667)"
       gradientUnits="userSpaceOnUse" />
    <radialGradient
       inkscape:collect="always"
       xlink:href="#linearGradient3960"
       id="radialGradient3966"
       cx="654.5"
       cy="764"
       fx="654.5"
       fy="764"
       r="20"
       gradientTransform="matrix(1,0,0,0.175,0,630.3)"
       gradientUnits="userSpaceOnUse" />
    <radialGradient
       inkscape:collect="always"
       xlink:href="#linearGradient3968"
       id="radialGradient3974"
       cx="600"
       cy="420"
       fx="600"
       fy="420"
       r="426"
       gradientUnits="userSpaceOnUse" />
  </defs>
  <rect
     style="fill:#000000;fill-opacity:1;stroke:none;stroke-width:1;stroke-miterlimit:4;stroke-opacity:1;stroke-dasharray:none"
     id="rect3918"
     width="1057.5399"
     height="1054.951"
     x="-1.2944185"
     y="-0.0021972656" />
  <polygon
     points="1025,446 1024,450 1024,454 1024,458 1023,462 1023,467 1022,471 1022,475 1021,479 1021,484 1020,488 1019,492 1019,496 1018,500 1017,505 1016,509 1015,513 1014,517 1013,521 1012,525 1011,529 1010,533 1009,538 1008,542 1006,546 1005,550 1004,554 1003,558 1001,562 1000,566 998,570 997,574 995,578 994,582 992,586 990,590 989,593 987,597 985,601 983,605 981,609 979,613 977,616 975,620 973,624 971,628 969,631 967,635 965,639 963,642 961,646 958,650 956,653 954,657 951,660 949,664 946,667 944,671 941,674 939,678 936,681 934,684 931,688 928,691 925,694 923,697 920,701 917,704 914,707 911,710 908,713 905,716 902,719 899,722 896,725 893,728 890,731 887,734 884,737 881,740 878,742 874,745 871,748 868,751 864,753 861,756 858,759 854,761 851,764 848,766 844,769 841,771 837,773 833,776 830,778 826,780 823,783 819,785 815,787 812,789 808,791 804,793 801,795 797,797 793,799 789,801 785,803 782,805 778,807 774,808 770,810 766,812 762,813 758,815 754,817 750,818 746,820 742,821 738,822 734,824 730,825 726,826 722,828 718,829 714,830 710,831 706,832 701,833 697,834 693,835 689,836 685,837 681,838 677,839 672,839 668,840 664,841 660,841 655,842 651,842 647,843 643,843 639,844 634,844 630,844 626,845 622,845 617,845 613,845 609,845 605,845 600,845 596,845 592,845 588,845 583,845 579,845 575,845 571,844 566,844 562,844 558,843 554,843 549,842 545,842 541,841 537,841 533,840 528,839 524,839 520,838 516,837 512,836 507,835 503,834 499,833 495,832 491,831 487,830 483,829 479,828 475,827 471,825 466,824 462,823 458,821 454,820 450,818 446,817 442,815 439,814 435,812 431,810 427,809 423,807 419,805 415,803 411,801 408,800 404,798 400,796 396,794 393,792 389,789 385,787 382,785 378,783 374,781 371,778 367,776 364,774 360,771 357,769 353,766 350,764 346,761 343,759 339,756 336,754 333,751 329,748 326,746 323,743 320,740 317,737 313,734 310,732 307,729 304,726 301,723 298,720 295,717 292,714 289,711 286,707 283,704 281,701 278,698 275,695 272,691 270,688 267,685 264,681 262,678 259,675 257,671 254,668 252,664 249,661 247,657 244,654 242,650 240,647 238,643 235,639 233,636 231,632 229,628 227,625 225,621 223,617 221,613 219,610 217,606 215,602 214,598 212,594 210,590 208,586 207,582 205,578 204,574 202,571 201,567 199,563 198,559 196,554 195,550 194,546 192,542 191,538 190,534 189,530 188,526 187,522 186,518 185,514 184,509 183,505 182,501 182,497 181,493 180,488 179,484 179,480 178,476 178,472 177,467 177,463 176,459 176,455 176,450 175,446 175,442 175,438 175,433 175,429 175,425 175,421 175,416 175,412 175,408 175,404 175,399 175,395 176,391 176,387 176,382 177,378 177,374 177,370 178,366 179,361 179,357 180,353 181,349 181,344 182,340 183,336 184,332 185,328 186,324 187,320 188,315 189,311 190,307 191,303 192,299 193,295 195,291 196,287 197,283 199,279 200,275 202,271 203,267 205,263 206,259 208,255 210,251 211,247 213,243 215,239 217,236 218,232 220,228 222,224 224,220 226,217 228,213 230,209 233,205 235,202 237,198 239,195 241,191 244,187 246,184 248,180 251,177 253,173 256,170 258,166 261,163 263,160 266,156 269,153 271,150 274,146 277,143 280,140 282,137 285,134 288,130 291,127 294,124 297,121 300,118 303,115 306,112 309,109 312,106 315,104 319,101 322,98 325,95 328,92 332,90 335,87 338,84 342,82 345,79 349,77 352,74 355,72 359,69 362,67 366,65 370,62 373,60 377,58 380,56 384,53 388,51 391,49 395,47 399,45 403,43 406,41 410,39 414,37 418,35 422,34 426,32 429,30 433,28 437,27 441,25 445,24 449,22 453,21 457,19 461,18 465,16 469,15 473,14 477,13 481,11 486,10 490,9 494,8 498,7 502,6 506,5 510,4 514,3 519,2 523,2 527,1 531,0 535,-1 540,-1 544,-2 548,-2 552,-3 557,-3 561,-4 565,-4 569,-4 573,-5 578,-5 582,-5 586,-5 590,-5 595,-5 599,-5 603,-5 607,-5 612,-5 616,-5 620,-5 624,-5 629,-5 633,-4 637,-4 641,-3 646,-3 650,-3 654,-2 658,-1 663,-1 667,0 671,0 675,1 679,2 684,3 688,4 692,5 696,5 700,6 704,7 708,9 713,10 717,11 721,12 725,13 729,14 733,16 737,17 741,19 745,20 749,21 753,23 757,24 761,26 765,28 769,29 773,31 776,33 780,35 784,36 788,38 792,40 796,42 799,44 803,46 807,48 811,50 814,52 818,55 822,57 825,59 829,61 832,64 836,66 839,68 843,71 846,73 850,76 853,78 857,81 860,83 863,86 867,89 870,91 873,94 877,97 880,99 883,102 886,105 889,108 892,111 895,114 899,117 902,120 905,123 907,126 910,129 913,132 916,135 919,138 922,142 925,145 927,148 930,151 933,155 935,158 938,161 940,165 943,168 946,172 948,175 950,179 953,182 955,186 957,189 960,193 962,196 964,200 966,204 969,207 971,211 973,215 975,219 977,222 979,226 981,230 983,234 984,238 986,241 988,245 990,249 991,253 993,257 995,261 996,265 998,269 999,273 1001,277 1002,281 1003,285 1005,289 1006,293 1007,297 1009,301 1010,305 1011,309 1012,313 1013,318 1014,322 1015,326 1016,330 1017,334 1018,338 1018,342 1019,347 1020,351 1021,355 1021,359 1022,363 1022,368 1023,372 1023,376 1024,380 1024,385 1024,389 1025,393 1025,397 1025,402 1025,406 1025,410 1025,414 1025,419 1025,423 1025,427 1025,431 1025,436 1025,440 1025,444 1025,448 1024,453 1024,457 1024,461 1023,465 1023,470 1025,420 1025,420 1025,424 1025,429 1025,433 1025,437 1025,441 "
     id="polygon156"
     style="fill:url(#radialGradient3974);stroke:#00a2f5;stroke-opacity:1;stroke-width:1;stroke-miterlimit:4;stroke-dasharray:none;fill-opacity:1;stroke-linejoin:round"
     transform="translate(-60.837666,64.718753)" />
  <polygon
     points="767,687 728,709 690,723 653,732 618,737 585,737 554,735 525,730 498,722 472,713 448,701 426,688 405,674 386,659 369,643 353,625 339,607 326,588 315,569 305,549 297,528 290,508 285,486 281,465 279,444 278,422 279,400 281,379 284,358 289,337 295,316 303,296 312,276 323,256 335,238 349,220 364,203 380,186 398,171 417,157 437,144 459,133 483,123 508,114 534,108 562,104 591,102 622,103 655,107 689,116 724,129 760,147 795,173 830,205 861,245 888,294 906,350 913,410 909,472 913,400 913,400 911,462 897,521 873,575 841,621 805,659 "
     id="polygon122"
     style="fill:url(#radialGradient3930);stroke:none;stroke-opacity:1;stroke-width:2;stroke-miterlimit:4;stroke-dasharray:none;fill-opacity:1"
     transform="translate(-60.837666,64.718753)" />
  <path
     style="fill:none;stroke:#00a2f5;stroke-linejoin:round;stroke-opacity:0.622549"
     d="m 628.16233,365.71875 c 4.87196,4.92807 11.79404,9.87054 13,17 -8.46012,-4.02304 -15.98337,-10.001 -24.40016,-14.31064 -5.82682,-3.41986 -12.02432,-7.23312 -18.59232,-9.21508 -6.48026,-3.4259 -13.50466,-5.02908 -20.29939,-7.29642 -6.67576,-1.89134 -13.60974,-2.21328 -20.27435,-3.7901 -8.22055,-0.50461 -16.2479,-2.1244 -24.57235,-1.22306 -7.23783,1.07994 -14.45901,1.35916 -21.63243,2.90595 -7.16578,0.7161 -14.10662,3.66698 -21.10176,5.15799 -6.35429,3.89225 -13.96332,4.20898 -19.92737,8.66112 -7.40309,3.22936 -13.72238,7.9389 -20.74641,11.58157 -3.52305,1.23549 -10.84486,10.29795 -12.47623,5.49177 4.03623,-6.80787 9.76094,-12.30195 15.88263,-17.32564 6.4504,-5.20183 13.10848,-9.71791 20.16291,-13.56519 6.63037,-3.92263 13.70701,-6.40684 21.05205,-9.20682 7.72835,-2.45606 15.43893,-4.21135 23.13076,-5.94972 4.39073,0.2566 8.61844,-1.46533 13.1298,-0.91573 8.22154,0 16.44308,0 24.66462,0 6.61373,1.82164 13.84356,2.28844 20.65999,4.3965 8.58824,2.23548 16.25371,5.55135 24.18405,8.6035 5.71955,3.92404 13.18768,7.05759 18.96651,11.64604 3.29293,1.81418 8.05944,6.84731 9.29421,7.45872 -2.89149,-3.66086 -4.71868,-3.11433 -0.10476,-0.10476 z"
     id="polygon42"
     inkscape:connector-curvature="0" />
  <path
     style="fill:none;stroke:#00a2f5;stroke-linejoin:round;stroke-opacity:0.622549"
     d="m 669.16233,405.71875 c 15.61455,25.72222 20.5161,55.95386 19,85.73607 -4.31959,49.1275 -34.11315,96.63397 -78.599,118.86293 -35.01066,19.66747 -78.98316,24.16549 -117.02059,10.18506 -22.99407,-6.42129 -43.54243,-20.41866 -60.17256,-36.96463 -28.11754,-29.51157 -44.79766,-69.89789 -42.20785,-110.80712 0.32222,-38.41239 18.63416,-75.763 46.17381,-102.25697 24.40125,-22.61762 56.8803,-37.56254 90.00374,-39.8267 28.43318,-3.69502 57.48424,3.72139 82.90532,16.44802 28.46694,15.03332 51.80127,39.68545 65.55466,68.80217 -2.05916,-3.28894 -3.69871,-6.81763 -5.63753,-10.17883 z"
     id="polygon38"
     inkscape:connector-curvature="0" />
  <rect
     style="fill:#000000;fill-opacity:1;stroke:none"
     id="rect3922"
     width="27.916409"
     height="13.729381"
     x="527.20825"
     y="321.04163" />
  <path
     style="fill:#166cee;fill-opacity:1;stroke:none"
     d="m 590.16233,534.71875 c -1.21463,1.23448 -2.99758,2.72465 -3.33434,4 -1.36227,0.74918 -1.96943,2.25346 -3.33434,3 -1.67122,0.4509 -2.35612,3.28299 -4.33132,3 0.0294,2.14079 -2.75071,1.47219 -3.33434,3 -1.24531,1.02778 -2.61109,1.27409 -4.13849,2.47283 -1.42141,1.054 -3.22007,1.19721 -4.52717,2.52717 -2.05093,0.0605 -3.26449,0.95841 -4.33434,2 -2.77033,-0.65888 -2.56282,1.66007 -5.33434,1 0.15145,2.26189 -4.5793,-0.35842 -4.33132,2 -2.04749,0.15441 -4.35169,-0.31095 -6.23641,0.23641 -1.3681,1.58984 -3.89038,0.39321 -5.76359,0.76359 -3.33333,0 -6.66667,0 -10,0 -0.0312,-2.08028 -3.70911,-0.51378 -5.33434,-1 -0.33623,-1.77522 -4.0638,-0.15909 -4.66566,-1.66868 -1.52864,-0.12871 -3.5587,-1.01292 -5.33434,-1.33132 -0.88982,-0.86748 -2.84749,-1.48877 -4.66566,-2 -1.33469,-1.47056 -3.26374,-1.50622 -4.70924,-2.70924 -1.43396,-0.99834 -2.78063,-1.32357 -3.95944,-2.29076 -0.57993,-1.53051 -3.36246,-0.85842 -3.33132,-3 -1.29109,-0.43938 -2.49824,-1.51972 -4,-3 -1.62318,-0.48826 -2.28179,-1.94111 -3.33434,-3 -1.42323,-0.54905 -1.60654,-2.26406 -3.3749,-3.70924 -0.79224,-1.46793 -1.4399,-2.38163 -3,-4 -0.40669,-1.96231 -1.95288,-2.95485 -2.29076,-4.29076 -0.49467,-1.61678 -1.70811,-2.51478 -2,-4.33434 -0.86748,-0.88982 -1.48877,-2.84749 -2,-4.66566 0.21564,-2.32709 -1.7311,-2.49179 -1,-5.33434 -1.38497,-0.72647 -0.97442,-3.24847 -1,-5.33434 0.1559,-2.82398 -0.31293,-5.90673 0.23641,-8.56773 1.33851,-1.61942 0.50428,-3.77931 1.76359,-4.76359 0.66028,-1.75787 1.06806,-3.80099 2,-4.66868 1.12684,-1.97856 1.61445,-2.47802 2.94566,-4.27698 1.78546,-1.16818 1.78616,-3.08766 3.52717,-3.52717 0.71086,-1.48058 1.57549,-3.25636 3.4243,-3.97574 1.92686,-0.80107 2.10143,-3.37825 3.99419,-4.44275 3.02599,-2.64973 4.72612,-6.48372 8.19086,-8.67716 3.97902,-3.29114 7.66768,-7.1126 12.235,-9.53725 5.57625,-2.96027 11.72456,-5.30188 18.0141,-5.8491 7.36751,-0.64101 14.94096,0.90237 21.96776,3.10435 5.06527,1.5873 9.8035,4.29324 14.17379,7.32331 3.88934,2.69661 6.69248,6.71527 10.52717,9.52717 2.82914,4.68661 7.33333,8 11,12 0.16129,2.29548 2.30326,1.95723 3,4 0.56269,1.75461 1.85662,1.86564 2.94566,3.94566 0.61787,1.48211 1.47978,2.58199 2.05434,4.05434 -0.0612,2.26313 1.42015,2.62059 1.23641,5.23641 1.58984,1.3681 0.39321,3.89038 0.76359,5.76359 -0.15522,2.38049 0.31203,5.01881 -0.23641,7.23641 -2.03432,0.92361 0.64966,4.93325 -1.76359,4.76359 0.74239,2.85384 -1.48234,2.74055 -1,5.33434 -0.75183,1.35961 -1.85061,2.37229 -2,4.33434 -1.04439,1.06605 -1.93855,2.28233 -2,4.33132 -2.14079,-0.0294 -1.47219,2.75071 -3,3.33434 -0.94182,1.27254 -1.77979,1.78624 -3,3.66566 -2.71268,2.71268 1.54387,-1.54387 2,-2 z"
     id="polygon22"
     inkscape:connector-curvature="0"
     sodipodi:nodetypes="cccccccccccccccccccccccccccccccccccccaasaccccccccccccccc" />
  <path
     style="fill:#001826;fill-opacity:1;stroke:#00537d;stroke-opacity:1"
     d="m 588.16233,536.71875 c -2.57438,3.82857 -6.83037,6.2132 -10.00229,9.30287 -3.55199,2.45502 -7.66839,4.86565 -11.8856,6.83042 -4.12594,1.42409 -7.79743,3.46141 -11.79832,3.88349 -3.69561,1.0478 -7.33294,1.31508 -10.93936,1.98322 -3.79148,0 -7.58295,0 -11.37443,0 -1.55318,-2.22678 -6.52132,-0.14734 -8.83512,-1.89318 -5.15257,-1.20253 -9.58312,-3.51081 -14.62255,-5.45555 -4.15399,-2.48591 -8.54261,-5.09988 -11.74545,-7.9109 -3.12989,-2.86641 -6.02223,-6.0811 -8.72421,-9.22449 -2.61149,-3.3127 -5.52172,-7.92586 -7.35503,-12.36963 -2.07815,-4.80227 -2.36946,-8.98283 -3.33134,-13.93158 -0.45851,-4.56766 0.85468,-9.29134 2.68587,-13.75182 2.65193,-2.86729 4.80784,-6.43099 8.83412,-7.01361 3.46887,-2.00554 8.0197,-1.10925 11.96882,-2.44924 25.04163,0 50.08326,0 75.12489,0 5.57269,1.70913 11.26346,0.64493 16.14909,3.8007 4.66518,2.48644 7.65243,7.81276 7.83299,13.04521 1.32803,3.04789 0.82642,6.00087 0.007,9.51999 -0.0199,4.98275 -2.13087,8.9452 -3.98879,13.6341 -2.51137,4.29439 -4.49685,8.28004 -8,11.5831 -2.62071,5.20625 2.52482,-4.05828 0,0.41692 l 0,-2e-5 z"
     id="polygon18"
     inkscape:connector-curvature="0" />
  <text
     x="532.85406"
     y="503.55624"
     id="text20"
     style="font-size:16.24683570999999900px;fill:#00a2f5;fill-opacity:1;stroke:#00a2f5;stroke-width:1.35390305999999990;stroke-opacity:1"
     transform="scale(0.97448269,1.0261855)">Earth</text>
  <polygon
     points="601,488 601,488 601,488 601,488 601,488 601,488 601,488 601,488 601,488 601,488 601,488 601,488 601,488 601,488 601,488 601,488 601,488 601,488 601,488 601,488 601,489 601,489 601,489 601,489 601,489 601,489 601,489 601,489 601,489 601,489 601,489 601,489 601,489 601,489 601,489 601,489 601,489 601,489 601,489 601,489 601,489 601,489 601,489 601,489 601,489 601,489 601,489 601,489 601,489 601,489 601,489 601,489 601,489 601,489 601,489 601,489 601,489 601,489 601,489 601,489 601,489 601,489 601,489 601,489 601,489 601,489 601,489 601,489 601,489 601,489 601,489 601,489 601,489 601,489 601,489 601,489 601,489 601,489 601,489 601,489 601,489 601,489 601,489 601,489 601,489 601,489 601,489 601,489 601,489 601,489 601,489 601,489 601,489 601,489 601,489 601,489 601,489 601,489 601,489 601,489 601,489 601,489 601,489 600,489 600,489 600,489 600,489 600,489 600,489 600,489 600,489 600,489 600,489 600,489 600,489 600,489 600,489 600,489 600,489 600,489 600,489 600,489 600,489 600,489 600,489 600,489 600,489 600,489 600,489 600,489 600,489 600,489 600,489 600,489 600,489 600,489 600,489 600,489 600,489 600,489 600,489 600,489 600,489 600,489 600,489 600,489 600,489 600,489 600,489 600,489 600,489 600,489 600,489 600,489 600,489 600,489 600,489 600,489 600,489 600,489 600,489 600,489 600,489 600,489 600,489 600,489 600,489 600,489 600,489 600,489 600,489 600,489 600,489 600,489 600,489 600,489 600,489 600,489 600,489 600,489 600,489 600,489 600,489 600,489 600,489 600,489 600,489 600,489 600,489 600,489 600,489 600,489 600,489 600,489 600,489 600,489 600,489 600,489 600,489 600,489 600,489 599,489 599,489 599,489 599,489 599,489 599,489 599,489 599,489 599,489 599,489 599,489 599,489 599,489 599,489 599,489 599,489 599,489 599,489 599,489 599,489 599,489 599,489 599,489 599,489 599,489 599,489 599,489 599,489 599,489 599,489 599,489 599,489 599,489 599,489 599,489 599,489 599,489 599,489 599,489 599,489 599,489 599,489 599,489 599,489 599,489 599,489 599,489 599,489 599,489 599,489 599,489 599,489 599,489 599,489 599,489 599,489 599,489 599,489 599,489 599,489 599,489 599,489 599,489 599,489 599,489 599,489 599,489 599,489 599,489 599,489 599,489 599,489 599,489 599,489 599,489 599,489 599,489 599,489 599,489 599,489 599,489 599,489 599,488 599,488 599,488 599,488 599,488 599,488 599,488 599,488 599,488 599,488 599,488 599,488 599,488 599,488 599,488 599,488 599,488 599,488 599,488 599,488 599,488 599,488 599,488 599,488 599,488 599,488 599,488 599,488 599,488 599,488 599,488 599,488 599,488 599,488 599,488 599,488 599,488 599,488 599,488 599,488 599,488 599,488 599,488 599,488 599,488 599,488 599,488 599,488 599,488 599,488 599,488 599,488 599,488 599,488 599,488 599,488 599,488 599,488 599,488 599,488 599,488 599,488 599,488 599,488 599,488 599,488 599,488 599,488 599,488 599,488 599,488 599,488 599,488 599,488 599,488 599,488 599,488 599,488 599,488 599,488 599,488 599,488 599,488 599,488 599,488 599,488 599,488 599,488 599,488 599,488 599,488 599,488 599,488 599,488 599,488 599,488 599,488 599,488 599,488 599,488 599,488 599,488 599,488 599,488 599,488 599,488 599,488 599,488 599,488 599,488 599,488 599,488 599,488 599,488 599,488 599,488 599,488 599,488 599,488 599,488 599,488 599,488 599,488 599,488 599,488 599,488 599,488 599,488 599,488 599,488 599,488 599,488 599,488 599,488 599,488 600,488 600,488 600,488 600,488 600,488 600,488 600,488 600,488 600,488 600,488 600,488 600,488 600,488 600,488 600,488 600,488 600,488 600,488 600,488 600,488 600,488 600,488 600,488 600,488 600,488 600,488 600,488 600,488 600,488 600,488 600,488 600,488 600,488 600,488 600,488 600,488 600,488 600,488 600,488 600,488 600,488 600,488 600,488 600,488 600,488 600,488 600,488 600,488 600,488 600,488 600,488 600,488 600,488 600,488 600,488 600,488 600,488 600,488 600,488 600,488 600,488 600,488 600,488 600,488 600,488 600,488 600,488 600,488 600,488 600,488 600,488 600,488 600,488 600,488 600,488 600,488 600,488 600,488 600,488 600,488 600,488 600,488 600,488 600,488 600,488 600,488 600,488 600,488 600,488 600,488 600,488 600,488 600,488 600,488 600,488 601,488 601,488 601,488 601,488 601,488 601,488 601,488 601,488 601,488 601,488 601,488 601,488 601,488 601,488 601,488 601,488 601,488 601,488 601,488 601,488 601,488 601,488 601,488 601,488 601,488 601,488 601,488 601,488 601,488 601,488 601,488 601,488 601,488 601,488 601,488 601,488 601,488 601,488 601,488 601,488 601,488 601,488 601,488 601,488 601,488 601,488 601,488 601,488 601,488 601,488 601,488 601,488 601,488 601,488 601,488 601,488 601,488 601,488 601,488 601,488 601,488 601,488 601,488 601,488 601,488 601,488 601,488 601,488 601,488 601,488 601,488 601,488 601,488 601,488 601,488 601,488 601,488 601,488 601,488 601,488 601,488 601,488 601,488 601,488 601,488 601,488 601,488 601,488 601,488 601,488 601,488 601,488 601,488 601,488 601,488 601,488 601,488 601,488 601,488 601,488 601,488 601,488 601,488 601,488 601,488 601,488 601,488 601,488 601,488 601,488 601,488 601,488 601,488 601,488 601,488 601,488 601,488 601,488 601,488 601,488 601,488 601,488 601,488 601,488 601,488 601,488 601,488 601,488 601,488 "
     id="polygon24"
     style="fill:none;stroke:#00a2f5;stroke-opacity:1"
     transform="translate(-60.837666,64.718753)" />
  <polygon
     points="601,319 600,320 600,320 599,319 599,319 600,319 601,319 601,319 "
     id="polygon26"
     style="fill:none;stroke:#73d0ff;stroke-opacity:1"
     transform="matrix(0.86481513,0,0,1.866109,20.273254,-212.40894)" />
  <text
     x="545.16235"
     y="383.71872"
     id="text28"
     style="fill:#00a2f5;stroke:#00a2f5;stroke-opacity:1;fill-opacity:1">Moon</text>
  <polygon
     points="601,273 601,273 599,273 599,273 599,273 600,273 601,273 601,273 "
     id="polygon30"
     style="fill:none;stroke:#5fc9ff;stroke-opacity:1"
     transform="matrix(1,0,0,6.381632,-60.837666,-1403.4926)" />
  <text
     x="530.06006"
     y="333.14227"
     id="text32"
     style="fill:#00a2f5;stroke:#00a2f5;stroke-opacity:1;fill-opacity:1">Sun</text>
  <path
     style="fill:none;stroke:#00a2f5;stroke-opacity:0.622549;stroke-width:1;stroke-miterlimit:4;stroke-dasharray:none;fill-opacity:1;stroke-linejoin:round"
     d="m 713.16233,490.71875 c -0.43789,4.64198 -1.49918,9.1368 -1,14 -1.4879,3.65983 -1.42326,7.96275 -2,12 -1.04123,3.98707 -1.44493,8.38944 -3,11.98571 -1.6921,5.52128 -2.76737,10.6526 -5,16.01429 -0.40152,4.20362 -3.86835,7.68072 -4.44082,11.88164 -1.34886,3.87407 -4.33198,7.058 -5.55918,11.11836 -2.37328,4.08337 -5.43911,7.9384 -7,12 -5.0919,6.84068 -9.3061,14.31397 -16,20 -4.22269,6.21118 -10.3894,11.35073 -15.88164,16.44082 -8.88056,6.74018 -17.95221,13.21524 -27.11836,19.55918 -4.26643,1.44687 -7.67985,4.17003 -11.76329,5.88164 -3.65197,1.90913 -7.65316,2.71368 -11.23671,5.11836 -4.22367,1.59558 -8.43157,3.04809 -12.88164,4.44082 -3.85635,1.27524 -7.98556,2.09813 -11.81536,3.25618 -4.23679,0.41684 -8.17989,1.54272 -12.27442,2.303 -4.36224,0.25125 -8.46604,1.59724 -13.02858,1 -7.55512,2.21789 -16.05827,0.41983 -24,1 -4.06051,-0.077 -7.76572,-1.6591 -12,-1 -3.42808,-1.69661 -8.0871,-1.08212 -11.88164,-2.44082 -4.69138,-1.24883 -9.67405,-1.26373 -14.11836,-3.55918 -4.32781,-0.66454 -8.68303,-2.30264 -13,-4 -3.64985,-1.59343 -8.21767,-2.83292 -11.697,-4.697 -3.7979,-2.32544 -7.56534,-3.51212 -11.303,-6.303 -4.99883,-0.68145 -8.1977,-6.51793 -13,-7 -4.3472,-3.6938 -9.8272,-6.24554 -13,-11 -7.87471,-4.76683 -14.2167,-12.111 -20.44082,-18.88164 -2.85471,-5.14108 -7.92153,-7.83706 -10.55918,-13.11836 -4.05823,-3.63973 -4.38623,-8.66372 -7.88164,-12.76329 -3.37578,-3.48443 -4.35022,-8.2004 -7.11836,-12.23671 -1.00793,-4.1891 -4.60114,-7.70693 -5,-11.97142 -2.69749,-4.3752 -3.38517,-9.07497 -5,-14.01429 -1.15114,-4.04075 -2.86715,-8.45152 -3.44082,-12.89593 -1.71864,-3.83435 -1.17582,-8.03751 -2.55918,-12.10407 -0.0765,-5.06538 -1.67295,-9.77197 -1,-15.01429 -2.21742,-5.21482 -0.41758,-12.09365 -1,-17.98571 2.24833,-4.68058 -0.21879,-11.05223 2,-16.01429 -0.12999,-5.1833 1.83364,-9.87236 2.44082,-14.88164 1.48447,-4.01543 1.53289,-8.01086 3,-12 1.19605,-4.14029 2.74115,-8.00943 4.25618,-11.81536 1.8387,-4.08768 3.12555,-8.11848 5.303,-12.303 0.86105,-4.27242 5.19646,-7.43505 5.697,-11.697 5.76412,-8.75507 11.5183,-17.84392 18.18464,-25.74382 3.26548,-2.81314 5.27,-7.28754 9.11836,-9.55918 2.50078,-3.98074 6.38777,-6.39342 9.697,-9.697 3.79494,-2.45426 6.1612,-6.10439 10.303,-8.303 6.53437,-4.41098 13.17142,-9.47158 19.98571,-13 4.12533,-1.52506 7.7231,-3.99266 11.71129,-5.697 4.08768,-1.8387 8.11848,-3.12555 12.303,-5.303 4.10627,-1.04802 7.8437,-2.71625 12,-4 4.97504,-1.10572 9.82505,-2.74109 15,-3 4.18107,-1.27131 8.47198,-2.07733 12.97142,-2 7.22633,-2.23898 15.41506,-0.40117 23.02858,-1 6.42546,-0.0771 12.86735,-0.22379 18.98571,1 3.97043,0.73805 8.27438,0.67091 12,2 5.96505,0.0895 11.16354,3.42629 17.01429,4 4.18486,1.30821 7.80203,3.23418 12,4 3.53717,2.88819 8.22348,2.90901 11.88164,5.44082 3.83645,2.73519 8.17819,3.26784 11.88165,6.44082 4.53624,3.71065 9.95459,4.32065 13.93371,8.81536 4.38131,4.37862 10.68185,6.74386 14.18464,11.74382 4.31392,1.96287 5.89231,6.55506 10.11836,8.55918 3.0229,5.13067 8.39177,8.57045 11,14 5.44898,3.25884 7.39357,10.1566 11.44082,14.88164 1.81562,4.48669 4.66567,8.55962 7.44082,12.88165 1.22587,4.1284 3.24154,7.49079 5.11836,11.23671 0.34306,4.27146 3.81431,7.58643 4,12 1.88221,3.53441 2.52942,8.33684 4,11.98571 1.25845,4.94375 3.10198,9.74938 3,15.01429 1.94019,3.36842 0.47321,8.24636 2,12 -0.60464,5.71709 1.70508,10.22701 1,15.98571 0.72275,7.24931 -1.60662,13.77811 -1,21 -1.94147,8.7446 -0.43667,3.46912 -0.11727,-2.81305 0.37243,-3.72422 0.74485,-7.44844 1.11727,-11.17266 z"
     id="polygon34"
     inkscape:connector-curvature="0" />
  <text
     x="507.47577"
     y="305.6933"
     id="text36"
     style="fill:#00a2f5;stroke:#00a2f5;stroke-opacity:1;fill-opacity:1">Neptune Orbit</text>
  <text
     x="695.55444"
     y="102.76412"
     id="text40"
     style="font-size:12px;fill:#000000;stroke:#00a2f5;stroke-width:1;stroke-opacity:1"
     transform="matrix(0.71258849,0.70158225,-0.70158225,0.71258849,0,0)">Mars Orbit</text>
  <text
     x="710.17078"
     y="13.299422"
     id="text44"
     style="font-size:12px;fill:#00a2f5;stroke:#00a2f5;stroke-width:1;stroke-opacity:1;fill-opacity:1"
     transform="matrix(0.85933189,0.51141832,-0.51141832,0.85933189,0,0)">Venus Orbit</text>
  <polygon
     points="449,227 448,227 448,228 448,228 448,228 448,228 448,228 448,228 448,228 448,228 448,228 447,228 447,228 447,228 447,228 447,228 447,228 447,228 447,228 447,228 447,228 447,228 447,228 447,228 447,228 447,228 448,228 448,228 448,228 448,228 448,228 448,228 448,228 448,228 448,227 448,227 449,227 449,227 449,227 449,227 449,227 449,227 449,227 449,227 449,227 449,227 449,227 449,227 449,227 449,227 449,227 449,227 449,227 449,227 449,227 449,227 449,227 449,227 449,227 449,227 449,227 449,227 449,227 449,227 449,227 449,227 "
     id="polygon50"
     style="fill:none;stroke:#00a2f5;stroke-opacity:1"
     transform="matrix(1.8815177,0,0,1.7889109,-457.05644,-115.57024)" />
  <text
     x="393.16232"
     y="291.71875"
     id="text52"
     style="fill:#00a2f5;stroke:#00a2f5;stroke-opacity:1;fill-opacity:1">A Centauri</text>
  <polygon
     points="353,414 353,414 353,414 353,414 353,414 353,414 353,414 353,414 353,414 353,415 353,414 353,414 353,414 353,414 353,414 353,414 353,414 353,414 353,414 353,414 353,414 353,414 353,414 353,414 353,414 353,413 353,413 353,413 353,413 353,413 353,413 353,413 353,413 353,413 353,413 353,413 353,413 353,413 353,413 353,413 353,413 353,413 353,413 353,413 353,413 353,413 353,413 353,413 353,413 353,413 353,413 353,413 353,413 353,413 353,413 353,413 353,414 353,414 353,413 353,413 353,414 353,414 353,414 353,414 353,414 353,414 "
     id="polygon54"
     style="fill:none;stroke:#00a2f5;stroke-opacity:1"
     transform="matrix(2.9482492,0,0,1,-749.54375,64.718753)" />
  <text
     x="297.16232"
     y="478.71872"
     id="text56"
     style="fill:#00a2f5;stroke:#00a2f5;stroke-opacity:1;fill-opacity:1">Barnard's Star</text>
  <polygon
     points="672,181 672,181 671,181 671,181 671,181 671,181 671,181 671,181 671,181 671,181 671,181 671,181 671,181 671,181 671,181 671,181 671,181 671,181 670,181 670,181 670,181 670,181 670,180 670,180 670,180 670,180 670,180 670,180 670,180 670,180 670,180 670,180 670,180 670,180 670,180 670,181 670,181 670,181 671,181 671,181 671,181 671,181 671,181 671,181 671,181 671,181 671,181 671,181 671,181 671,181 671,181 671,181 671,181 672,181 672,181 672,181 672,181 672,181 672,181 672,181 672,181 672,181 672,181 672,181 672,181 672,181 "
     id="polygon58"
     style="fill:none;stroke:#00a2f5;stroke-opacity:1"
     transform="matrix(1.2017285,0,0,2.0528734,-195.71044,-126.13667)" />
  <text
     x="616.16235"
     y="245.71875"
     id="text60"
     style="fill:#00a2f5;stroke:#00a2f5;stroke-opacity:1;fill-opacity:1">Wolf 359</text>
  <polygon
     points="848,388 848,388 848,388 848,388 848,388 848,388 848,388 848,388 848,388 848,388 848,388 848,388 848,388 848,388 848,388 848,388 848,388 848,388 848,388 848,388 848,388 848,387 848,387 848,387 848,387 848,387 848,387 848,387 848,387 848,387 848,387 848,387 848,387 848,387 848,387 848,387 848,387 848,387 848,387 848,387 848,387 848,387 848,387 848,387 848,387 848,387 848,387 848,387 848,387 848,387 848,387 848,387 848,387 848,387 848,387 848,387 848,387 848,387 848,387 848,387 848,387 848,388 848,388 848,388 848,388 848,388 "
     id="polygon62"
     style="fill:none;stroke:#00a2f5;stroke-opacity:1"
     transform="matrix(3.9223738,0,0,1.6494164,-2540.4718,-186.28068)" />
  <text
     x="792.16235"
     y="451.71872"
     id="text64"
     style="fill:#00a2f5;stroke:#00a2f5;stroke-opacity:1;fill-opacity:1">Sirius</text>
  <polygon
     points="800,573 800,573 800,574 800,574 800,574 800,574 800,574 800,574 800,574 800,574 800,574 800,574 800,574 800,574 800,574 800,574 800,574 800,574 800,574 800,574 800,574 800,574 800,574 800,574 800,574 800,574 800,574 800,574 800,574 800,573 800,573 800,573 800,573 800,573 800,573 800,573 800,573 800,573 800,573 800,573 800,573 800,573 800,573 800,573 800,573 800,573 800,573 800,573 800,573 800,573 800,573 800,573 800,573 800,573 800,573 800,573 800,573 800,573 800,573 800,573 800,573 800,573 800,573 800,573 800,573 800,573 "
     id="polygon66"
     style="fill:none;stroke:#00a2f5;stroke-opacity:1"
     transform="matrix(2.9482492,0,0,1.4870623,-1618.4629,-215.09853)" />
  <path
     style="fill:#00a2f5;stroke:#00a2f5;stroke-opacity:1;fill-opacity:1"
     d="M 745.125 629.125 L 745.125 637.71875 L 751.53125 637.71875 L 751.53125 636.71875 L 746.25 636.71875 L 746.25 633.78125 L 751 633.78125 L 751 632.78125 L 746.25 632.78125 L 746.25 630.15625 L 751.3125 630.15625 L 751.3125 629.125 L 745.125 629.125 z M 765.65625 629.125 L 765.65625 630.34375 L 766.71875 630.34375 L 766.71875 629.125 L 765.65625 629.125 z M 768.3125 629.125 L 768.3125 637.71875 L 769.34375 637.71875 L 769.34375 629.125 L 768.3125 629.125 z M 787.84375 629.125 L 787.84375 637.71875 L 794.25 637.71875 L 794.25 636.71875 L 788.96875 636.71875 L 788.96875 633.78125 L 793.71875 633.78125 L 793.71875 632.78125 L 788.96875 632.78125 L 788.96875 630.15625 L 794.0625 630.15625 L 794.0625 629.125 L 787.84375 629.125 z M 799.71875 629.125 L 799.71875 630.34375 L 800.75 630.34375 L 800.75 629.125 L 799.71875 629.125 z M 806.34375 629.125 L 806.34375 632.21875 C 806.16015 631.96485 805.91796 631.75196 805.625 631.59375 C 805.33203 631.43555 805 631.34376 804.625 631.34375 C 804.11328 631.34376 803.66406 631.48047 803.25 631.75 C 802.83594 632.01954 802.51953 632.43165 802.3125 632.9375 C 802.10547 633.44336 802 634.00391 802 634.625 C 802 635.26172 802.11523 635.82227 802.34375 636.3125 C 802.57226 636.80274 802.89648 637.16406 803.3125 637.4375 C 803.72851 637.71094 804.1914 637.875 804.6875 637.875 C 805.45312 637.875 806.01171 637.55469 806.40625 636.9375 L 806.40625 637.71875 L 807.40625 637.71875 L 807.40625 629.125 L 806.34375 629.125 z M 755.75 631.34375 C 755.34375 631.34376 754.97265 631.43555 754.6875 631.59375 C 754.40234 631.75196 754.16406 631.9961 753.9375 632.3125 L 753.9375 631.5 L 752.96875 631.5 L 752.96875 640.09375 L 754.03125 640.09375 L 754.03125 637.0625 C 754.21094 637.28906 754.43945 637.47656 754.71875 637.625 C 754.99804 637.77344 755.30468 637.875 755.65625 637.875 C 756.13671 637.875 756.5957 637.70898 757.03125 637.4375 C 757.46679 637.16602 757.80273 636.79102 758.03125 636.28125 C 758.25976 635.77149 758.37499 635.19922 758.375 634.5625 C 758.37499 633.96875 758.26953 633.43555 758.0625 632.9375 C 757.85546 632.43946 757.56249 632.02344 757.15625 631.75 C 756.75 631.47657 756.28125 631.34376 755.75 631.34375 z M 761.6875 631.34375 C 761.36328 631.34376 761.06445 631.38477 760.78125 631.46875 C 760.49805 631.55274 760.28906 631.66016 760.125 631.78125 C 759.90625 631.93751 759.7207 632.13868 759.59375 632.375 C 759.4668 632.61133 759.40625 632.87891 759.40625 633.15625 C 759.40625 633.46094 759.4707 633.7168 759.625 633.96875 C 759.7793 634.22071 760.01367 634.41993 760.3125 634.5625 C 760.61133 634.70508 761.16406 634.89844 761.9375 635.09375 C 762.51172 635.23828 762.85546 635.34375 763 635.4375 C 763.20703 635.57422 763.3125 635.76172 763.3125 636 C 763.3125 636.26563 763.20312 636.49024 762.96875 636.6875 C 762.73437 636.88477 762.35937 637 761.875 637 C 761.39453 637 761.01758 636.87891 760.75 636.65625 C 760.48242 636.4336 760.33984 636.10547 760.28125 635.6875 L 759.21875 635.875 C 759.33594 636.53516 759.60742 637.00781 760.03125 637.34375 C 760.45508 637.67969 761.0664 637.875 761.875 637.875 C 762.36328 637.875 762.80078 637.76367 763.1875 637.59375 C 763.57421 637.42383 763.88867 637.18555 764.09375 636.875 C 764.29882 636.56445 764.40624 636.22656 764.40625 635.875 C 764.40624 635.51563 764.32421 635.24219 764.15625 635 C 763.98828 634.75782 763.73242 634.56446 763.4375 634.4375 C 763.14257 634.31055 762.62109 634.13672 761.875 633.9375 C 761.35937 633.79688 761.07422 633.72657 760.96875 633.6875 C 760.78515 633.61329 760.64844 633.51954 760.5625 633.40625 C 760.47656 633.29688 760.4375 633.16797 760.4375 633.03125 C 760.4375 632.81641 760.51172 632.62891 760.71875 632.46875 C 760.92578 632.3086 761.29687 632.21876 761.78125 632.21875 C 762.1914 632.21876 762.49414 632.32032 762.71875 632.5 C 762.94336 632.67969 763.07812 632.92969 763.125 633.25 L 764.15625 633.09375 C 764.08984 632.69141 763.98828 632.36524 763.8125 632.125 C 763.63671 631.88477 763.33789 631.70313 762.96875 631.5625 C 762.59961 631.42188 762.17578 631.34376 761.6875 631.34375 z M 773.53125 631.34375 C 772.76172 631.34376 772.09765 631.60157 771.5625 632.0625 C 770.92187 632.61719 770.59375 633.44141 770.59375 634.59375 C 770.59375 635.64453 770.86914 636.47266 771.40625 637.03125 C 771.94336 637.58984 772.66015 637.875 773.53125 637.875 C 774.07421 637.875 774.57226 637.72266 775.03125 637.46875 C 775.49023 637.21484 775.82226 636.86524 776.0625 636.40625 C 776.30273 635.94727 776.43749 635.33203 776.4375 634.53125 C 776.43749 633.54297 776.16796 632.74805 775.625 632.1875 C 775.08203 631.62696 774.38671 631.34376 773.53125 631.34375 z M 780.59375 631.34375 C 779.73047 631.34376 779.08203 631.69141 778.625 632.375 L 778.625 631.5 L 777.6875 631.5 L 777.6875 637.71875 L 778.71875 637.71875 L 778.71875 634.3125 C 778.71875 633.51563 778.89258 632.97266 779.21875 632.6875 C 779.54492 632.40235 779.92578 632.28126 780.375 632.28125 C 780.65625 632.28126 780.91601 632.3418 781.125 632.46875 C 781.33398 632.59571 781.48046 632.75586 781.5625 632.96875 C 781.64453 633.18165 781.6875 633.50782 781.6875 633.9375 L 781.6875 637.71875 L 782.71875 637.71875 L 782.71875 633.90625 C 782.71874 633.41797 782.69531 633.07032 782.65625 632.875 C 782.59374 632.57422 782.49999 632.31251 782.34375 632.09375 C 782.18749 631.87501 781.93945 631.69727 781.625 631.5625 C 781.31054 631.42774 780.96875 631.34376 780.59375 631.34375 z M 797.96875 631.34375 C 797.72265 631.34376 797.51758 631.42188 797.3125 631.5625 C 797.10742 631.70313 796.86719 631.9961 796.625 632.4375 L 796.625 631.5 L 795.6875 631.5 L 795.6875 637.71875 L 796.75 637.71875 L 796.75 634.46875 C 796.75 634.02344 796.78906 633.59375 796.90625 633.21875 C 796.98437 632.97266 797.1289 632.79493 797.3125 632.65625 C 797.49609 632.51758 797.70703 632.43751 797.9375 632.4375 C 798.19531 632.43751 798.42968 632.53516 798.6875 632.6875 L 799.0625 631.6875 C 798.69531 631.46094 798.32422 631.34376 797.96875 631.34375 z M 811.6875 631.34375 C 811.15234 631.34376 810.6875 631.41602 810.28125 631.5625 C 809.875 631.70899 809.55859 631.91602 809.34375 632.1875 C 809.12891 632.45899 808.96875 632.83985 808.875 633.28125 L 809.90625 633.40625 C 810.01953 632.96485 810.20117 632.67383 810.4375 632.5 C 810.67383 632.32618 811.03515 632.21876 811.53125 632.21875 C 812.0625 632.21876 812.48046 632.35547 812.75 632.59375 C 812.94921 632.76954 813.03125 633.07032 813.03125 633.5 C 813.03125 633.53907 813.03515 633.63672 813.03125 633.78125 C 812.6289 633.92188 812.00781 634.02344 811.15625 634.125 C 810.73828 634.17578 810.42578 634.22657 810.21875 634.28125 C 809.9375 634.35938 809.66211 634.47266 809.4375 634.625 C 809.21289 634.77735 809.04492 634.99805 808.90625 635.25 C 808.76758 635.50196 808.6875 635.75781 808.6875 636.0625 C 808.6875 636.58203 808.88281 637.00977 809.25 637.34375 C 809.61719 637.67773 810.1289 637.875 810.8125 637.875 C 811.22656 637.875 811.63867 637.79297 812 637.65625 C 812.36132 637.51953 812.73437 637.26953 813.125 636.9375 C 813.15625 637.23047 813.20312 637.5 813.3125 637.71875 L 814.4375 637.71875 C 814.30468 637.48047 814.20117 637.22852 814.15625 636.96875 C 814.11132 636.70899 814.09374 636.10547 814.09375 635.125 L 814.09375 633.71875 C 814.09374 633.25 814.0664 632.89844 814.03125 632.71875 C 813.96874 632.42969 813.87499 632.18946 813.71875 632 C 813.56249 631.81055 813.30078 631.65626 812.96875 631.53125 C 812.63671 631.40626 812.21875 631.34376 811.6875 631.34375 z M 818.65625 631.34375 C 817.79297 631.34376 817.14453 631.69141 816.6875 632.375 L 816.6875 631.5 L 815.75 631.5 L 815.75 637.71875 L 816.78125 637.71875 L 816.78125 634.3125 C 816.78125 633.51563 816.95508 632.97266 817.28125 632.6875 C 817.60742 632.40235 817.98828 632.28126 818.4375 632.28125 C 818.71875 632.28126 818.97851 632.3418 819.1875 632.46875 C 819.39648 632.59571 819.54296 632.75586 819.625 632.96875 C 819.70703 633.18165 819.75 633.50782 819.75 633.9375 L 819.75 637.71875 L 820.78125 637.71875 L 820.78125 633.90625 C 820.78124 633.41797 820.75781 633.07032 820.71875 632.875 C 820.65624 632.57422 820.56249 632.31251 820.40625 632.09375 C 820.24999 631.87501 820.00195 631.69727 819.6875 631.5625 C 819.37304 631.42774 819.03125 631.34376 818.65625 631.34375 z M 765.65625 631.5 L 765.65625 637.71875 L 766.71875 637.71875 L 766.71875 631.5 L 765.65625 631.5 z M 799.71875 631.5 L 799.71875 637.71875 L 800.75 637.71875 L 800.75 631.5 L 799.71875 631.5 z M 755.625 632.1875 C 756.07812 632.18751 756.48632 632.38672 756.8125 632.78125 C 757.13867 633.17579 757.28124 633.76954 757.28125 634.5625 C 757.28124 635.39453 757.11523 636.00977 756.78125 636.40625 C 756.44726 636.80274 756.0625 637 755.59375 637 C 755.13281 637 754.73047 636.78906 754.40625 636.40625 C 754.08203 636.02344 753.9375 635.45703 753.9375 634.65625 C 753.9375 633.85547 754.09179 633.23243 754.4375 632.8125 C 754.7832 632.39258 755.17578 632.18751 755.625 632.1875 z M 773.53125 632.21875 C 774.05078 632.21876 774.46289 632.41602 774.8125 632.8125 C 775.1621 633.20899 775.34374 633.79297 775.34375 634.5625 C 775.34374 635.37891 775.16015 636.00781 774.8125 636.40625 C 774.46484 636.80469 774.05468 637 773.53125 637 C 773.0039 637 772.5664 636.80274 772.21875 636.40625 C 771.87109 636.00977 771.6875 635.39063 771.6875 634.59375 C 771.6875 633.79688 771.87109 633.20704 772.21875 632.8125 C 772.5664 632.41797 773.0039 632.21876 773.53125 632.21875 z M 804.71875 632.21875 C 805.19922 632.21876 805.60937 632.41407 805.9375 632.8125 C 806.26562 633.21094 806.4375 633.83594 806.4375 634.6875 C 806.4375 635.46094 806.25976 636.06055 805.9375 636.4375 C 805.61523 636.81445 805.24218 637 804.78125 637 C 804.32422 637 803.92969 636.80078 803.59375 636.40625 C 803.25781 636.01172 803.09375 635.42188 803.09375 634.625 C 803.09375 633.80079 803.24805 633.19532 803.5625 632.8125 C 803.87695 632.42969 804.25 632.21876 804.71875 632.21875 z M 813.03125 634.59375 L 813.03125 634.96875 C 813.03125 635.4336 812.95703 635.79297 812.84375 636.03125 C 812.69531 636.33985 812.47265 636.60352 812.15625 636.78125 C 811.83984 636.95899 811.46875 637.03125 811.0625 637.03125 C 810.65234 637.03125 810.36914 636.9375 810.15625 636.75 C 809.94336 636.5625 809.8125 636.34375 809.8125 636.0625 C 809.8125 635.87891 809.87109 635.71289 809.96875 635.5625 C 810.0664 635.41211 810.19531 635.29688 810.375 635.21875 C 810.55469 635.14063 810.8789 635.0625 811.3125 635 C 812.07812 634.89063 812.64843 634.75 813.03125 634.59375 z "
     id="text68" />
  <text
     x="777.16235"
     y="388.71872"
     id="text72"
     style="fill:#00a2f5;stroke:#00a2f5;stroke-opacity:1;fill-opacity:1">Procyon</text>
  <polygon
     points="474,639 474,639 474,639 474,639 474,639 474,639 474,639 474,639 474,639 474,639 474,639 474,639 474,639 474,639 474,639 474,639 473,639 473,639 473,639 473,639 473,639 473,639 473,639 473,639 473,639 473,639 473,639 473,639 473,639 473,639 473,639 473,639 473,639 473,639 473,639 473,639 473,639 473,639 473,639 473,639 473,639 473,639 473,639 473,639 474,639 474,639 474,639 474,639 474,639 474,639 474,639 474,639 474,639 474,639 474,639 474,639 474,639 474,639 474,639 474,639 474,639 474,639 474,639 474,639 474,639 474,639 "
     id="polygon74"
     style="fill:none;stroke:#00a2f5;stroke-opacity:1"
     transform="matrix(1.6888101,0,0,3.2960337,-387.67806,-1401.2987)" />
  <text
     x="418.16232"
     y="703.71875"
     id="text76"
     style="fill:#00a2f5;stroke:#00a2f5;stroke-opacity:1;fill-opacity:1">Epsilon Indi</text>
  <polygon
     points="712,647 712,647 712,647 712,647 712,647 712,647 712,647 712,647 712,647 712,647 712,647 712,647 712,647 712,647 711,647 711,647 711,647 711,647 711,647 711,647 711,647 711,647 711,647 711,647 711,647 711,647 711,647 712,647 712,647 712,647 712,647 712,647 712,647 712,647 712,647 712,647 712,647 712,647 712,647 712,647 712,647 712,647 712,647 712,647 712,647 712,647 712,647 712,647 712,647 712,647 712,647 712,647 712,647 712,647 712,647 712,647 712,647 712,647 712,647 712,647 712,647 712,647 712,647 712,647 712,647 712,647 "
     id="polygon78"
     style="fill:none;stroke:#00a2f5;stroke-opacity:1"
     transform="matrix(1.2296034,0,0,2.8368269,-224.43006,-1124.6267)" />
  <text
     x="656.16235"
     y="711.71875"
     id="text80"
     style="fill:#00a2f5;stroke:#00a2f5;stroke-opacity:1;fill-opacity:1">Tau Ceti</text>
  <polygon
     points="455,202 455,202 455,202 455,202 455,202 455,202 455,202 455,202 455,202 455,202 454,202 454,202 454,202 454,202 454,202 454,202 454,202 454,202 454,202 454,202 454,202 454,202 454,202 454,202 454,202 454,202 454,202 454,202 455,202 455,202 455,202 455,202 455,202 455,202 455,202 455,202 455,202 455,202 455,202 455,202 455,202 455,202 455,202 455,202 455,202 455,202 455,202 455,202 455,202 455,202 455,202 455,202 455,202 455,202 455,202 455,202 455,202 455,202 455,202 455,202 455,202 455,202 455,202 455,202 455,202 455,202 "
     id="polygon82"
     style="fill:none;stroke:#00a2f5;stroke-opacity:1"
     transform="matrix(2.4611869,0,0,3.2729574,-726.40829,-395.55511)" />
  <text
     x="399.16232"
     y="266.71875"
     id="text84"
     style="fill:#00a2f5;stroke:#00a2f5;stroke-opacity:1;fill-opacity:1">Arcturus</text>
  <polygon
     points="876,386 876,386 876,386 876,386 876,386 876,386 876,386 876,386 876,386 876,386 876,386 876,386 876,386 876,386 876,386 876,386 876,386 876,386 876,386 876,386 876,386 876,386 876,386 876,386 876,386 876,386 876,386 876,386 876,386 876,386 876,386 876,386 876,386 876,386 876,386 876,386 876,386 876,386 876,386 876,386 876,386 876,386 876,386 876,386 876,386 876,386 876,386 876,386 876,386 876,386 876,386 876,386 876,386 876,386 876,386 876,386 876,386 876,386 876,386 876,386 876,386 876,386 876,386 876,386 876,386 876,386 "
     id="polygon86"
     style="fill:none;stroke:#00a2f5;stroke-opacity:1"
     transform="translate(-60.837666,64.718753)" />
  <polygon
     points="344,459 344,459 344,459 344,459 344,459 344,460 344,460 344,460 344,460 344,459 344,459 344,459 344,459 344,459 344,459 344,459 344,458 344,458 344,458 344,458 344,458 344,457 344,457 344,457 344,457 344,456 344,456 344,456 344,456 344,456 344,455 344,455 344,455 344,455 344,455 344,455 344,455 344,455 344,455 344,455 344,455 344,455 344,455 344,455 344,455 344,455 344,455 344,456 344,456 344,456 344,456 344,457 344,457 344,457 344,457 344,458 344,458 344,457 344,457 344,458 344,458 344,458 344,458 344,459 344,459 344,459 "
     id="polygon90"
     style="fill:none;stroke:#00a2f5;stroke-opacity:1"
     transform="matrix(4.3556007,0,0,0.45881967,-1216.3008,310.68521)" />
  <text
     x="288.16232"
     y="522.71875"
     id="text92"
     style="fill:#00a2f5;stroke:#00a2f5;stroke-opacity:1;fill-opacity:1">Vega</text>
  <polygon
     points="858,471 858,471 858,471 858,471 858,471 858,471 858,471 858,471 858,471 858,471 858,471 858,471 858,471 858,471 858,471 858,471 858,471 858,471 858,471 858,471 858,471 858,471 858,471 858,471 858,471 858,471 858,471 858,471 858,471 858,471 858,471 858,471 858,471 858,471 858,471 858,471 858,471 858,471 858,471 858,471 858,471 858,471 858,471 858,471 858,471 858,471 858,471 858,471 858,471 858,471 858,471 858,471 858,471 858,471 858,471 858,471 858,471 858,471 858,471 858,471 858,471 858,471 858,471 858,471 858,471 858,471 "
     id="polygon94"
     style="fill:none;stroke:#00a2f5;stroke-opacity:1"
     transform="translate(-60.837666,64.718753)" />
  <polygon
     points="881,476 881,476 881,476 881,476 881,476 881,476 881,476 881,476 881,476 881,476 881,476 881,476 881,476 881,476 881,476 881,476 881,476 881,476 881,476 881,476 881,476 881,476 881,476 881,476 881,476 881,476 881,476 881,476 881,476 881,476 881,476 881,476 881,476 881,476 881,476 881,476 881,476 881,476 881,476 881,476 881,476 881,476 881,476 881,476 881,476 881,476 881,476 881,476 881,476 881,476 881,476 881,476 881,476 881,476 881,476 881,476 881,476 881,476 881,476 881,476 881,476 881,476 881,476 881,476 881,476 881,476 "
     id="polygon98"
     style="fill:none;stroke:#00a2f5;stroke-opacity:1"
     transform="translate(-60.837666,64.718753)" />
  <polygon
     points="884,428 884,428 884,428 884,428 884,428 884,428 884,428 884,428 884,428 884,428 884,428 884,428 884,428 884,428 884,428 884,428 884,428 884,428 884,428 884,427 884,427 884,427 884,427 884,427 884,427 884,427 884,427 884,427 884,427 884,427 884,427 884,427 884,427 884,427 884,427 884,427 884,427 884,427 884,427 884,427 884,427 884,427 884,427 884,427 884,427 884,427 884,427 884,427 884,427 884,427 884,427 884,427 884,427 884,427 884,427 884,427 884,427 884,427 884,427 884,427 884,427 884,427 884,427 884,427 884,427 884,427 "
     id="polygon102"
     style="fill:none;stroke:#00a2f5;stroke-opacity:1"
     transform="matrix(3.5976656,0,0,1.6494164,-2358.4729,-212.25734)" />
  <text
     x="795.80188"
     y="507.25174"
     id="text104"
     style="fill:#00a2f5;stroke:#00a2f5;stroke-opacity:1;fill-opacity:1">Betelgeuse</text>
  <polygon
     points="704,671 704,671 704,671 704,671 704,671 704,671 704,671 704,671 704,671 704,671 704,672 704,672 704,672 704,672 704,672 704,672 704,672 704,672 704,672 704,672 704,672 704,672 704,672 704,672 704,672 704,672 704,672 704,672 704,672 704,672 704,672 704,672 704,672 704,671 704,671 704,671 704,671 704,671 704,671 704,671 704,671 704,671 704,671 704,671 704,671 704,671 704,671 704,671 705,671 705,671 705,671 705,671 705,671 705,671 705,671 705,671 705,671 705,671 705,671 705,671 705,671 705,671 705,671 704,671 704,671 704,671 "
     id="polygon106"
     style="fill:none;stroke:#00a2f5;stroke-opacity:1"
     transform="translate(-60.837666,64.718753)" />
  <text
     x="649.16235"
     y="735.71875"
     id="text108"
     style="fill:#00a2f5;stroke:#00a2f5;stroke-opacity:1;fill-opacity:1">Achenar</text>
  <polygon
     points="376,542 376,542 376,542 376,542 376,542 376,542 376,542 376,542 376,542 376,542 376,542 376,542 375,542 375,542 375,542 375,542 375,542 375,542 375,542 375,542 375,542 375,542 375,542 375,542 375,542 375,542 375,542 375,542 375,542 375,542 375,542 375,542 375,542 375,542 375,542 375,542 375,542 375,542 375,542 375,542 375,542 375,542 375,542 375,542 375,542 375,542 375,542 375,542 375,542 375,542 375,542 375,542 375,542 375,542 375,542 375,542 375,542 375,542 375,542 375,542 375,542 376,542 376,542 376,542 376,542 376,542 "
     id="polygon110"
     style="fill:none;stroke:#00a2f5;stroke-opacity:1"
     transform="matrix(1.9741246,0,0,2.2988328,-427.59557,-638.5992)" />
  <text
     x="319.16232"
     y="606.71875"
     id="text112"
     style="fill:#00a2f5;stroke:#00a2f5;stroke-opacity:1;fill-opacity:1">Altair</text>
  <polygon
     points="846,522 846,522 846,522 846,522 846,522 846,523 846,523 846,523 846,523 846,523 846,523 846,523 846,523 846,523 846,523 846,523 846,523 846,523 846,523 846,523 846,523 846,522 846,522 846,522 846,522 846,522 846,522 846,522 846,522 846,522 846,522 846,522 846,522 846,521 846,521 846,521 846,521 846,521 846,521 846,521 846,521 846,521 846,521 846,521 846,521 846,521 846,521 846,521 846,521 846,521 846,521 846,521 846,521 846,521 846,521 846,521 846,522 846,522 846,522 846,522 846,522 846,522 846,522 846,522 846,522 846,522 "
     id="polygon114"
     style="fill:none;stroke:#00a2f5;stroke-opacity:1"
     transform="matrix(3.2729574,0,0,1.3247082,-1982.6231,-105.26599)" />
  <text
     x="790.16235"
     y="586.71875"
     id="text116"
     style="fill:#00a2f5;stroke:#00a2f5;stroke-opacity:1;fill-opacity:1">Aldebaran</text>
  <text
     x="231.16234"
     y="464.71872"
     id="text120"
     style="fill:#00a2f5;stroke:#00a2f5;stroke-opacity:1;fill-opacity:1">Milky Way Centre</text>
  <text
     x="868.16235"
     y="534.71875"
     id="text136"
     style="fill:#00a2f5;stroke:#00a2f5;stroke-opacity:1;fill-opacity:1">Greater Magellan</text>
  <polygon
     points="922,482 922,485 921,487 921,489 920,491 920,493 919,494 919,495 919,497 918,498 918,498 918,499 918,499 918,499 918,498 918,498 918,497 918,495 919,494 919,492 919,490 920,488 920,485 921,483 921,480 922,477 922,474 923,471 923,468 924,465 924,462 924,459 925,457 925,454 925,452 926,450 926,448 926,447 926,445 926,444 926,444 926,443 927,443 927,443 927,444 927,445 927,446 927,447 927,448 926,450 926,452 926,454 926,456 926,458 925,460 925,463 925,465 925,468 924,470 925,467 925,467 924,470 924,472 923,475 923,477 922,480 "
     id="polygon134"
     style="fill:url(#radialGradient3958);stroke:#00537d;stroke-opacity:1;fill-opacity:1"
     transform="translate(-60.837666,64.718753)" />
  <text
     x="508.09726"
     y="161.44901"
     id="text124"
     style="fill:#00a2f5;stroke:#00a2f5;stroke-opacity:1;fill-opacity:1">Milky Way</text>
  <polygon
     points="668,762 667,763 665,763 664,763 662,764 660,764 658,764 657,765 655,765 653,765 651,765 649,766 648,766 646,766 644,766 643,766 641,767 640,767 639,767 638,767 637,767 636,767 636,767 635,767 635,767 635,767 636,767 636,767 637,767 637,767 638,766 639,766 641,766 642,766 644,766 646,765 647,765 649,765 651,764 653,764 655,764 657,764 659,763 661,763 663,763 665,762 667,762 668,762 669,761 670,761 671,761 672,761 673,761 673,761 674,761 674,761 674,761 673,761 673,761 673,761 673,761 673,761 672,761 671,762 670,762 669,762 "
     id="polygon126"
     style="fill:url(#radialGradient3966);stroke:#00a2f5;stroke-opacity:1;fill-opacity:1"
     transform="translate(-60.837666,64.718753)" />
  <text
     x="415.33704"
     y="946.90558"
     id="text128"
     style="font-size:12px;fill:#000000;stroke:#00a2f5;stroke-width:1;stroke-opacity:1"
     transform="matrix(0.9794714,-0.20158317,0.20158317,0.9794714,0,0)">Andromeda</text>
  <polygon
     points="745,739 745,739 744,739 744,739 743,740 743,740 742,740 742,740 741,741 741,741 740,741 740,741 739,741 739,742 738,742 738,742 738,742 738,742 737,742 737,742 737,742 737,742 737,742 737,742 737,742 737,742 738,742 738,742 738,742 739,741 739,741 739,741 740,741 740,741 741,740 741,740 742,740 742,740 743,740 743,739 744,739 745,739 745,739 745,738 746,738 746,738 747,738 747,738 747,738 747,738 748,738 748,737 748,737 748,737 748,738 748,738 747,738 747,738 747,738 747,738 747,738 747,738 747,738 746,738 746,738 746,739 "
     id="polygon130"
     style="fill:none;stroke:#00a2f5;stroke-opacity:1"
     transform="translate(-60.837666,64.718753)" />
  <text
     x="311.5452"
     y="1015.6746"
     id="text132"
     style="font-size:12px;fill:#000000;stroke:#00a2f5;stroke-width:1;stroke-opacity:1"
     transform="matrix(0.9154282,-0.40248133,0.40248133,0.9154282,0,0)"
     inkscape:transform-center-y="15.291265">Triangulum</text>
  <polygon
     points="668,742 667,742 666,743 665,743 664,743 663,743 662,743 661,744 660,744 659,744 658,744 657,744 656,745 655,745 654,745 653,745 652,745 651,745 651,745 650,745 649,745 649,745 649,745 649,745 649,745 649,745 649,745 649,745 650,745 650,745 651,745 651,745 652,745 653,744 654,744 655,744 656,744 657,744 658,743 660,743 661,743 662,743 663,743 664,742 665,742 666,742 667,742 668,742 669,742 669,741 670,741 670,741 671,741 671,741 671,741 671,741 671,741 671,741 671,741 671,741 671,741 671,741 670,741 670,742 669,742 669,742 "
     id="polygon138"
     style="fill:none;stroke:#00a2f5;stroke-opacity:1"
     transform="translate(-60.837666,64.718753)" />
  <text
     x="387.69894"
     y="935.85052"
     id="text140"
     style="font-size:12px;fill:#000000;stroke:#00a2f5;stroke-width:1;stroke-opacity:1"
     transform="matrix(0.96687406,-0.25525391,0.25525391,0.96687406,0,0)">Lesser Magellan</text>
  <path
     style="fill:#000000;fill-opacity:1;stroke:none"
     d="m 383.16233,126.71875 c -2.86623,0.61597 -5.3636,2.12246 -7.79301,3.79301 -2.64339,0.93829 -5.00159,2.56508 -7.60349,3.6035 -2.7263,0.8359 -5.18497,2.31789 -7.39651,4.3965 -2.94812,0.42596 -5.27381,2.52778 -8,4 -2.5278,1.43416 -5.07888,2.57319 -7.60349,4.6035 -2.87971,0.61729 -5.37433,2.73443 -8.10813,4.35581 -4.84848,3.37494 -9.69521,6.75232 -14.89187,9.64419 -2.90364,1.89822 -4.5476,4.68574 -8,5.99999 -3.32078,1.48109 -5.175,4.05834 -8,6 -3.04938,1.78456 -5.35956,4.59471 -8.39651,6.39651 -2.33178,2.48242 -5.34632,4.01757 -7.70853,6.45776 -3.37919,1.74297 -5.49031,5.50054 -8.74923,7.25077 -1.86047,2.36815 -4.61576,4.50166 -7.25386,6.25077 -2.02249,2.72675 -4.75649,4.74197 -6.99691,7.25078 -2.24679,2.50244 -4.97118,4.52728 -7,7.24768 -2.95807,1.79116 -4.32681,5.17165 -7.49846,6.74923 -1.26471,3.4876 -3.91242,5.59221 -6.50463,7.75231 -2.03225,2.54829 -3.44205,5.63537 -6.49537,7.24769 -1.53555,3.45629 -5.13579,5.42442 -6.79301,8.79301 -1.85061,2.55795 -3.34421,5.79907 -6.20699,7.20699 -1.53801,2.70872 -4.71369,4.73955 -5,8 -1.78011,2.71925 -4.08213,5.06233 -6.25077,7.50154 -0.64653,3.10934 -3.49477,4.84966 -4.74923,7.49846 -2.26301,2.08632 -3.2128,4.71659 -5,7 -0.95577,2.60151 -3.29538,5.13261 -4,7 -1.50845,2.44771 -2.98966,4.90671 -4.3965,7.3965 -1.60015,2.23335 -2.69759,4.14795 -4.39651,6.39651 -1.08928,1.62041 -2.72397,6.4559 -2.20699,1.20699 1.49538,-1.69153 2.02109,-4.35274 3,-6.56074 1.27345,-1.87297 2.61961,-3.67323 3,-6.43926 2.33831,-2.04632 1.90907,-4.64884 4,-6 0.69884,-2.78306 2.49109,-5.11322 4,-7.56074 0.79394,-2.8483 3.87213,-4.60655 4,-7 1.79411,-1.46737 2.69578,-4.52166 4,-6 1.63667,-2.3946 3.33248,-4.76471 4.79301,-7.23227 1.84625,-2.1821 3.10557,-4.13807 4.20699,-6.20699 1.45219,-2.29658 3.30191,-3.86127 5,-6.56074 1.87427,-2.59184 3.52824,-4.18755 5,-6.43926 1.45219,-2.29658 3.30191,-3.86127 5,-6.56074 1.71221,-1.91612 3.4256,-3.94262 5.79301,-6.23227 1.31406,-2.02219 3.49547,-3.87837 5,-6 2.05855,-2.47785 4.29753,-3.74591 5.20699,-6.20699 2.78011,-1.51553 3.95621,-3.74244 5.79301,-5.79301 2.08441,-1.76028 4.08122,-3.6665 5.60349,-5.60349 1.49996,-1.788 4.64317,-3.25932 5.6035,-5.6035 3.01414,-0.99364 3.65471,-3.5681 6.3965,-5.3965 2.84924,-1.6132 3.63784,-4.02524 6.39651,-5.39651 1.24161,-1.97573 4.10257,-3.53061 5.76773,-5.20699 2.31721,-1.70559 4.51101,-3.70913 7,-5 1.19715,-1.65057 4.05158,-4.01352 6.43926,-5 2.09694,-2.23738 4.38153,-4.02171 7,-5 1.066,-1.73834 4.58758,-3.14426 6.56074,-5 2.62968,-1.14683 3.64247,-3.67916 6.83576,-4.3965 2.39672,-2.33585 4.60248,-2.53365 6.6035,-4.6035 2.95285,-0.8736 4.08731,-2.50775 7,-4 2.33848,-1.77217 5.04324,-2.66005 7.56074,-4 1.39383,-2.08722 4.70293,-1.78702 6.43926,-4 2.31449,-1.02905 6.03363,-2.02815 7,-4 3.17223,0.22053 5.08489,-2.59979 8,-3 2.29105,-2.00458 5.21327,-2.48538 7.79301,-3.79301 2.9384,-1.33455 4.61369,-1.5331 7.20699,-3.20699 2.47821,-1.05902 6.13968,-1.57187 7.56074,-3 2.97072,-0.2861 5.1581,-2.46336 8.43926,-2 2.848,-3.25165 2.98886,1.54418 -1,1 -1.02914,1.82772 -5.11036,1.94273 -7,4 -2.6741,0.27494 -5.62421,3.0041 -6.49846,2.74923 1.65247,-0.8702 9.50215,-4.77357 5.93772,-2.74923 -1.67041,-0.12534 -1.7685,1.11614 -3.43926,2 z"
     id="polygon144"
     inkscape:connector-curvature="0" />
  <text
     x="140.7648"
     y="299.52991"
     id="text146"
     style="font-size:12px;fill:#00a2f5;stroke:#00a2f5;stroke-width:1;stroke-opacity:1;fill-opacity:1"
     transform="matrix(0.83927053,-0.54371406,0.54371406,0.83927053,0,0)">Bootes Void</text>
  <polygon
     points="940,655 940,655 939,656 939,656 939,657 938,657 938,658 937,658 937,659 937,660 936,660 936,661 935,661 935,662 935,662 934,663 934,664 933,664 933,665 933,665 932,666 932,666 931,667 931,668 930,668 930,669 930,669 929,670 929,671 928,671 928,672 927,672 927,673 927,673 926,674 926,675 925,675 925,676 924,676 924,677 923,678 923,678 922,679 922,679 921,680 921,680 921,681 920,682 920,682 919,683 919,683 918,684 918,685 917,685 917,686 916,686 916,687 915,687 915,688 914,689 914,689 913,690 913,690 912,691 912,691 911,692 911,693 910,693 910,694 909,694 909,695 908,695 908,696 907,697 907,697 906,698 906,698 905,699 905,699 904,700 904,700 903,701 903,702 902,702 902,703 901,703 901,704 900,704 900,705 899,705 899,706 898,706 898,707 897,707 897,708 896,709 895,709 895,710 894,710 894,711 893,711 893,712 892,712 892,713 891,713 891,714 890,714 890,715 889,715 889,716 888,716 888,717 887,717 887,718 886,718 886,719 885,719 885,720 884,720 884,721 883,721 883,722 882,722 881,723 881,723 880,723 880,724 879,724 879,725 878,725 878,726 877,726 877,727 876,727 876,727 875,728 875,728 874,729 874,729 873,730 873,730 872,730 872,731 872,731 871,732 871,732 870,733 870,733 869,733 869,734 868,734 868,734 867,735 867,735 866,736 866,736 865,736 865,737 864,737 864,737 864,738 863,738 863,739 862,739 862,739 861,740 861,740 860,740 860,741 860,741 859,741 859,742 858,742 858,742 858,742 857,743 857,743 856,743 856,744 856,744 855,744 855,745 854,745 854,745 854,745 853,746 853,746 853,746 852,746 852,747 852,747 851,747 851,747 851,748 850,748 850,748 850,748 849,749 849,749 849,749 848,749 848,749 848,750 847,750 847,750 847,750 847,750 846,751 846,751 846,751 846,751 845,751 845,751 845,752 845,752 844,752 844,752 844,752 844,752 844,752 843,752 843,753 843,753 843,753 843,753 843,753 842,753 842,753 842,753 842,753 842,753 842,753 842,754 842,754 841,754 841,754 841,754 841,754 841,754 841,754 841,754 841,754 841,754 841,754 841,754 841,754 841,754 841,754 841,754 841,754 841,754 841,754 841,754 841,754 841,754 841,753 841,753 841,753 841,753 841,753 841,753 842,753 842,753 842,753 842,753 842,752 842,752 842,752 843,752 843,752 843,752 843,752 843,751 844,751 844,751 844,751 844,751 844,750 845,750 845,750 845,750 846,750 846,749 846,749 846,749 847,749 847,748 847,748 848,748 848,747 848,747 849,747 849,747 850,746 850,746 850,746 851,745 851,745 852,745 852,744 853,744 853,743 853,743 854,743 854,742 855,742 855,741 856,741 856,741 857,740 857,740 858,739 859,739 859,738 860,738 860,737 861,737 861,736 862,736 863,735 863,735 864,734 864,734 865,733 866,733 866,732 867,731 868,731 868,730 869,730 870,729 870,728 871,728 872,727 872,727 873,726 874,725 875,725 875,724 876,723 877,723 878,722 878,721 879,720 880,720 881,719 881,718 882,718 883,717 884,716 884,715 885,715 886,714 887,713 887,712 888,712 889,711 890,710 891,709 891,708 892,708 893,707 894,706 895,705 895,704 896,703 897,703 898,702 899,701 899,700 900,699 901,698 902,697 902,697 903,696 904,695 905,694 906,693 906,692 907,691 908,690 909,689 910,689 910,688 911,687 912,686 913,685 913,684 914,683 915,682 916,681 916,680 917,680 918,679 919,678 919,677 920,676 921,675 922,674 922,673 923,672 924,672 924,671 925,670 926,669 926,668 927,667 928,666 928,665 929,664 930,664 930,663 931,662 932,661 932,660 933,659 934,658 934,658 935,657 935,656 936,655 937,654 937,654 938,653 938,652 939,651 939,650 940,650 940,649 941,648 941,647 942,647 942,646 943,645 943,644 944,644 944,643 945,642 945,641 946,641 946,640 947,639 947,639 948,638 948,637 948,637 949,636 949,636 950,635 950,634 950,634 951,633 951,633 952,632 952,631 952,631 953,630 953,630 953,629 954,629 954,628 954,628 955,627 955,627 955,626 955,626 956,625 956,625 956,625 956,624 957,624 957,623 957,623 957,623 958,622 958,622 958,621 958,621 959,621 959,620 959,620 959,620 959,620 959,619 960,619 960,619 960,619 960,618 960,618 960,618 961,618 961,617 961,617 961,617 961,617 961,617 961,616 961,616 962,616 962,616 962,616 962,616 962,616 962,616 962,616 962,615 962,615 962,615 962,615 962,615 962,615 962,615 962,615 962,615 962,615 962,615 962,615 962,615 962,615 962,615 962,615 962,615 962,615 962,615 962,616 962,616 962,616 962,616 962,616 962,616 962,616 962,616 962,616 962,617 962,617 962,617 962,617 962,617 962,617 962,618 961,618 961,618 961,618 961,618 961,619 961,619 961,619 961,619 961,620 960,620 960,620 960,620 960,621 960,621 960,621 960,622 960,622 959,622 959,622 959,623 959,623 959,623 959,624 958,624 958,624 958,625 958,625 958,626 957,626 957,626 957,627 957,627 957,627 956,628 956,628 956,629 956,629 956,629 955,630 955,630 955,631 955,631 954,631 954,632 954,632 954,633 953,633 953,634 953,634 953,634 952,635 952,635 952,636 952,636 951,637 951,637 951,638 950,638 950,639 950,639 950,640 949,640 949,641 949,641 948,642 948,642 948,643 947,643 947,644 947,644 947,645 946,645 946,646 946,646 945,647 945,647 945,648 944,648 944,649 943,649 943,650 943,651 942,651 942,652 942,652 941,653 941,653 941,654 940,654 940,655 939,655 939,656 939,657 938,657 938,658 942,651 942,651 942,652 942,652 941,653 941,653 940,654 "
     id="polygon152"
     style="fill:#000000;stroke:none;stroke-opacity:1;fill-opacity:1"
     transform="translate(-60.837666,64.718753)" />
  <text
     x="-147.63879"
     y="1116.1392"
     id="text154"
     style="font-size:12px;fill:#00a2f5;stroke:#00a2f5;stroke-width:1;stroke-opacity:1;fill-opacity:1"
     transform="matrix(0.53589839,-0.84428249,0.84428249,0.53589839,0,0)"
     inkscape:transform-center-x="-47.322942"
     inkscape:transform-center-y="-5.1212578">Eridanus Supervoid</text>
  <text
     x="532.43292"
     y="49.383286"
     id="text158"
     style="font-size:13.99925423px;fill:#00a2f5;fill-opacity:1;stroke:#00a2f5;stroke-width:1.16660452;stroke-opacity:1"
     transform="scale(0.91606095,1.0916304)">Observable Universe</text>
  <path
     style="fill:#000000;fill-opacity:1;stroke:none"
     d="m 520.16233,847.71875 c -29.03166,7.55683 -60.01158,1.15526 -88.70791,-5.20978 C 299.44871,810.63206 194.34471,696.69333 166.98005,564.54663 137.72457,435.27023 184.72951,291.92341 286.5254,206.6477 c 33.22282,-28.40293 72.29677,-51.19338 114.91853,-61.74198 19.90084,4.16644 -21.61471,17.95883 -26.55214,24.72523 -52.30062,33.113 -95.88801,79.52938 -128.67736,131.29926 -21.53643,34.00307 -32.44659,74.1295 -41.84357,113.26674 -7.40851,30.85552 -12.97838,62.86214 -11.15156,94.54198 1.84635,32.01849 10.25382,63.85178 22.17964,93.62371 16.3096,40.71569 37.6358,80.50242 66.44963,113.57104 30.72593,35.26308 67.51032,66.12711 110.26986,86.76789 39.77252,21.0983 84.12482,30.6096 127.0439,43.01718 -1.6092,9.50314 -2.44182,-5.89618 1,2 z"
     id="polygon160"
     inkscape:connector-curvature="0"
     sodipodi:nodetypes="ccccccaaaaaccc" />
  <text
     x="693.42963"
     y="347.0072"
     id="text162"
     style="font-size:12px;fill:#00a2f5;stroke:#00a2f5;stroke-width:1;stroke-opacity:1;fill-opacity:1"
     transform="matrix(0.72887681,0.68464487,-0.68464487,0.72887681,0,0)">Local Void</text>
  <polygon
     points="601,47 601,47 601,47 601,47 601,47 601,47 601,47 601,47 601,47 600,48 600,48 600,48 600,48 600,48 600,48 600,48 600,48 600,48 600,48 599,48 599,48 599,48 599,48 599,48 599,48 599,48 598,48 598,48 598,48 598,48 598,48 598,48 597,48 597,48 597,48 597,48 597,48 596,48 596,48 596,48 596,48 595,48 595,48 595,48 595,48 594,48 594,48 594,48 593,48 593,48 593,48 593,48 592,48 592,48 592,48 591,48 591,48 591,48 590,48 590,48 590,48 589,48 589,48 589,48 588,48 588,48 588,48 587,48 587,48 586,48 586,48 586,48 585,48 585,48 584,48 584,48 584,49 583,49 583,49 582,49 582,49 581,49 581,49 581,49 580,49 580,49 579,49 579,49 578,49 578,49 577,49 577,49 576,49 576,49 575,49 575,49 574,49 574,49 573,49 573,49 572,49 572,49 571,49 571,49 570,50 570,50 569,50 569,50 568,50 568,50 567,50 567,50 566,50 565,50 565,50 564,50 564,50 563,50 563,50 562,50 562,50 561,50 561,50 560,51 559,51 559,51 558,51 558,51 557,51 557,51 556,51 555,51 555,51 554,51 554,51 553,51 553,51 552,52 551,52 551,52 550,52 550,52 549,52 549,52 548,52 548,52 547,52 546,52 546,52 545,52 545,53 544,53 544,53 543,53 542,53 542,53 541,53 541,53 540,53 540,53 539,53 539,53 538,54 538,54 537,54 537,54 536,54 535,54 535,54 534,54 534,54 533,54 533,54 532,55 532,55 531,55 531,55 530,55 530,55 529,55 529,55 528,55 528,55 527,55 527,56 526,56 526,56 525,56 525,56 525,56 524,56 524,56 523,56 523,56 522,56 522,56 521,57 521,57 521,57 520,57 520,57 519,57 519,57 519,57 518,57 518,57 517,57 517,57 517,58 516,58 516,58 515,58 515,58 515,58 514,58 514,58 514,58 513,58 513,58 513,58 512,58 512,59 512,59 511,59 511,59 511,59 511,59 510,59 510,59 510,59 509,59 509,59 509,59 509,59 508,59 508,59 508,59 508,59 507,59 507,60 507,60 507,60 507,60 506,60 506,60 506,60 506,60 506,60 505,60 505,60 505,60 505,60 505,60 505,60 505,60 504,60 504,60 504,60 504,60 504,60 504,60 504,60 504,60 503,60 503,60 503,60 503,60 503,60 503,60 503,60 503,60 503,60 503,60 503,60 503,60 503,60 503,60 503,60 503,60 503,60 503,60 503,60 503,60 503,60 503,60 503,60 503,60 503,60 503,60 503,60 503,60 503,60 503,60 503,60 503,60 503,60 503,60 503,60 503,60 503,60 503,60 503,60 503,60 504,60 504,60 504,60 504,60 504,60 504,60 504,60 504,60 504,59 505,59 505,59 505,59 505,59 505,59 505,59 505,59 506,59 506,59 506,59 506,59 506,59 506,59 507,59 507,59 507,59 507,59 507,59 508,58 508,58 508,58 508,58 508,58 509,58 509,58 509,58 509,58 510,58 510,58 510,58 510,58 511,58 511,58 511,57 511,57 512,57 512,57 512,57 512,57 513,57 513,57 513,57 514,57 514,57 514,57 514,57 515,57 515,56 515,56 516,56 516,56 516,56 517,56 517,56 517,56 517,56 518,56 518,56 518,56 519,56 519,55 519,55 520,55 520,55 520,55 521,55 521,55 522,55 522,55 522,55 523,55 523,55 523,54 524,54 524,54 524,54 525,54 525,54 525,54 526,54 526,54 527,54 527,54 527,54 528,53 528,53 529,53 529,53 529,53 530,53 530,53 530,53 531,53 531,53 532,53 532,53 532,53 533,52 533,52 534,52 534,52 535,52 535,52 535,52 536,52 536,52 537,52 537,52 537,52 538,52 538,51 539,51 539,51 540,51 540,51 540,51 541,51 541,51 542,51 542,51 542,51 543,51 543,51 544,51 544,50 545,50 545,50 546,50 546,50 546,50 547,50 547,50 548,50 548,50 549,50 549,50 549,50 550,50 550,50 551,50 551,50 552,49 552,49 552,49 553,49 553,49 554,49 554,49 555,49 555,49 556,49 556,49 556,49 557,49 557,49 558,49 558,49 559,49 559,49 559,49 560,48 560,48 561,48 561,48 562,48 562,48 562,48 563,48 563,48 564,48 564,48 565,48 565,48 565,48 566,48 566,48 567,48 567,48 567,48 568,48 568,48 569,48 569,48 570,48 570,48 570,48 571,48 571,48 572,47 572,47 572,47 573,47 573,47 574,47 574,47 574,47 575,47 575,47 576,47 576,47 576,47 577,47 577,47 578,47 578,47 578,47 579,47 579,47 579,47 580,47 580,47 580,47 581,47 581,47 582,47 582,47 582,47 583,47 583,47 583,47 584,47 584,47 584,47 585,47 585,47 585,47 586,47 586,47 586,47 587,47 587,47 587,47 588,47 588,47 588,47 589,47 589,47 589,47 589,47 590,47 590,47 590,47 591,47 591,47 591,47 591,47 592,47 592,47 592,47 592,47 593,47 593,47 593,47 594,47 594,47 594,47 594,47 594,47 595,47 595,47 595,47 595,47 596,47 596,47 596,47 596,47 596,47 597,47 597,47 597,47 597,47 597,47 598,47 598,47 598,47 598,47 598,47 598,47 599,47 599,47 599,47 599,47 599,47 599,47 599,47 599,47 600,47 600,47 600,47 600,47 600,47 600,47 600,47 600,47 600,47 600,47 601,47 601,47 601,47 601,47 601,47 601,47 601,47 601,47 601,47 601,47 601,47 601,47 601,47 601,47 601,47 601,47 601,47 601,47 601,47 601,47 601,47 601,47 601,47 601,47 601,47 601,47 601,47 601,47 601,47 601,47 601,47 601,47 601,47 601,47 "
     id="polygon164"
     style="fill:url(#radialGradient3950);stroke:#00537d;stroke-opacity:1;fill-opacity:1"
     transform="translate(-60.837666,64.718753)" />
  <text
     x="486.58365"
     y="106.22701"
     id="text166"
     style="fill:#00a2f5;stroke:#00a2f5;stroke-opacity:1;fill-opacity:1">Virgo cluster</text>
  <polygon
     points="834,324 834,324 834,324 834,324 834,324 834,324 834,324 834,324 834,324 834,324 834,324 834,324 834,324 834,324 833,324 833,324 833,324 833,324 833,324 833,323 833,323 833,323 833,323 833,323 833,323 833,323 833,323 833,323 833,323 833,323 833,323 833,323 833,323 833,323 833,323 833,323 833,323 833,323 833,323 833,323 833,323 833,323 833,323 833,323 833,323 833,323 833,323 833,323 833,323 833,323 833,323 833,323 833,323 833,323 833,323 833,323 833,323 833,324 833,324 833,324 833,324 833,324 833,324 834,324 834,324 834,324 "
     id="polygon70"
     style="fill:none;stroke:#00a2f5;stroke-opacity:1"
     transform="translate(-60.837666,64.718753)" />
  <polygon
     points="344,459 344,459 344,459 344,459 344,459 344,458 344,458 344,458 344,458 344,458 344,457 344,457 344,457 344,457 344,456 344,456 344,456 344,456 344,456 344,455 344,455 344,455 344,455 344,455 344,455 344,455 344,455 344,455 344,455 344,455 344,455 344,455 344,455 344,455 344,455 344,455 344,456 344,456 344,456 344,456 344,457 344,457 344,457 344,457 344,458 344,458 344,457 344,457 344,458 344,458 344,458 344,458 344,459 344,459 344,459 344,459 344,459 344,459 344,459 344,459 344,460 344,460 344,460 344,460 344,459 344,459 "
     id="polygon90-1"
     style="fill:none;stroke:#00a2f5;stroke-opacity:1"
     transform="matrix(11.377297,0,0,1.3522071,-3688.1225,-157.65303)" />
  <path
     style="fill:#00a2f5;fill-opacity:1;stroke:#00a2f5;stroke-opacity:1"
     d="m 822.26254,629.13196 0,1.21875 1.0625,0 0,-1.21875 -1.0625,0 z m 0,2.375 0,6.21875 1.0625,0 0,-6.21875 -1.0625,0 z"
     id="text68-1"
     inkscape:connector-curvature="0" />
</svg>
